<svg width="208" height="80" viewBox="0 0 208 80" fill="none" xmlns="http://www.w3.org/2000/svg">
<g clip-path="url(#clip0_93_41871)">
<path d="M36.8683 0V35.7501H28.0693C28.0693 31.6344 28.0825 27.5319 28.0693 23.4294C28.0473 17.3163 22.856 14.2059 17.3984 17.0326C15.3527 18.0906 14.1868 19.7052 14.1868 22.0744C14.1978 36.2363 14.1428 50.4004 14.2462 64.5645C14.277 69.1531 16.8815 71.5376 21.3667 71.6322C25.2669 71.7158 27.8978 69.4479 28.1221 65.1188C28.3993 59.7668 28.2431 54.3929 28.1969 49.0277C28.1925 48.392 27.8494 47.3295 27.4292 47.1931C24.343 46.2077 25.4802 43.8473 25.4274 41.6234H38.925C38.9954 43.7374 40.0535 45.8755 37.3544 47.1931C36.8507 47.4395 36.6879 48.7572 36.6791 49.5843C36.6219 54.3335 36.6835 59.0849 36.6549 63.8363C36.6395 66.4144 37.8867 68.0642 40.3219 68.6032C41.7473 68.9199 42.1806 69.5513 42.1454 70.9261C42.0706 73.8957 42.1234 76.8654 42.1234 80H0.249264C0.249264 76.762 0.198668 73.5372 0.308655 70.3168C0.324053 69.8856 1.09616 69.3137 1.6329 69.0959C4.82252 67.8091 6.03457 66.1769 6.04117 62.6969C6.05877 52.7563 6.06317 42.8157 6.01917 32.8773C5.99498 27.9718 5.16788 27.037 0.0424909 26.1087C0.0424909 23.4338 -0.102694 20.6511 0.143676 17.9015C0.205269 17.1997 1.41732 16.399 2.26862 16.0031C12.7152 11.1549 23.1947 6.38143 33.6545 1.56401C34.5915 1.13286 35.4472 0.525737 36.3403 0H36.8683Z" fill="url(#paint0_linear_93_41871)"/>
<path d="M74.3655 13.0193H93.2018V59.2511H87.4143V19.2379H80.5952V59.0069H74.3655V13.0193Z" fill="black"/>
<path fill-rule="evenodd" clip-rule="evenodd" d="M114.682 9.77881C115.608 11.5474 116.452 13.1576 117.323 14.8228C113.219 18.2588 105.612 17.8144 105.623 25.4981C105.96 25.6873 106.129 25.8677 106.246 25.8369C114.299 23.7141 117.84 29.6292 118.399 35.5421C118.855 40.3331 118.716 45.2078 118.452 50.0274C118.186 54.913 114.71 58.8417 110.674 59.4862C106.107 60.2122 101.776 57.9464 99.9324 53.6833C99.4286 52.5175 99.2109 51.1427 99.2021 49.8624C99.1361 41.4264 99.1845 32.9904 99.1559 24.5544C99.1361 19.2729 101.155 15.4497 106.373 13.5338C109.156 12.5109 111.793 11.0987 114.682 9.77881ZM105.293 42.3129H105.324C105.324 40.034 105.247 37.7529 105.348 35.4783C105.436 33.4876 106.188 31.774 108.485 31.6354C110.643 31.5034 111.831 32.9904 111.906 34.8822C112.106 39.8624 112.172 44.858 111.983 49.8382C111.912 51.6882 110.471 53.162 108.434 53.052C106.362 52.9398 105.443 51.301 105.328 49.4114C105.188 47.0511 105.293 44.6776 105.293 42.3129Z" fill="black"/>
<path d="M123.502 12.7227H139.685V19.4341H129.945V58.9656H123.502V12.7227Z" fill="black"/>
<path fill-rule="evenodd" clip-rule="evenodd" d="M151.222 25.2592C152.008 20.3208 151.581 19.8501 145.69 19.3617V12.9715C154.368 10.84 158.327 16.7177 158.358 23.0419C158.398 31.6561 158.422 40.2724 158.354 48.8866C158.308 54.6059 154.359 59.0824 149.511 59.1242C142.727 59.1858 138.862 55.6728 138.668 49.1242C138.554 45.2592 138.624 41.3899 138.609 37.5228C138.58 29.0252 142.8 24.9227 151.222 25.2592ZM145.012 42.4546H144.973C144.973 40.1668 144.92 37.8791 144.988 35.5936C145.045 33.561 145.791 31.898 148.116 31.7573C150.604 31.6077 151.649 33.2883 151.715 35.4088C151.873 40.2416 151.889 45.0833 151.781 49.9183C151.733 51.9706 150.514 53.5346 148.334 53.539C146.097 53.5412 145.129 51.8826 145.039 49.8391C144.929 47.382 145.012 44.9161 145.012 42.4546Z" fill="black"/>
<path d="M181.962 32.6526H175.583C175.583 29.8897 175.612 27.118 175.568 24.3486C175.55 23.3037 175.693 22.0256 175.165 21.2821C174.492 20.3406 173.234 19.3464 172.182 19.2914C171.287 19.2452 170.106 20.3428 169.466 21.2337C168.968 21.9288 168.986 23.0771 168.979 24.0274C168.938 32.2082 168.938 40.3912 168.942 48.5721C168.942 49.2694 168.806 50.2307 169.186 50.609C170.154 51.5659 171.448 52.9539 172.488 52.8571C173.485 52.7669 175 51.0951 175.119 49.9953C175.466 46.7001 175.242 43.3411 175.242 39.7819H181.617C181.617 44.012 182.123 48.3499 181.485 52.5118C180.722 57.4854 176.008 60.2174 170.744 59.6213C165.821 59.0626 162.167 55.4308 162.096 50.5386C161.962 41.0401 161.931 31.5351 162.094 22.0366C162.18 16.8849 166.212 13.2707 171.39 13.1695C178.669 13.0265 181.923 16.1787 181.96 23.4313C181.975 26.4075 181.962 29.3838 181.962 32.6526Z" fill="black"/>
<path d="M187.421 13.596H193.415C193.47 14.5089 193.565 15.347 193.567 16.1851C193.582 22.6897 193.615 29.1943 193.563 35.699C193.545 37.9339 194.242 39.5551 196.642 39.8059C198.706 40.0192 200.054 38.3914 200.065 35.7693C200.094 28.4794 200.074 21.1873 200.074 13.6444H206.805C206.805 21.845 206.838 29.9115 206.792 37.9801C206.765 42.5445 206.86 47.131 206.438 51.6646C205.996 56.3897 202.63 59.1965 197.9 59.3373C195.01 59.4231 192.115 59.3527 189.025 59.3527V52.4829C190.868 52.4829 192.608 52.4939 194.348 52.4807C199.229 52.4433 200.32 51.1587 199.669 45.9761C198.937 46.0157 198.186 46.0751 197.434 46.0993C192.098 46.2929 187.813 43.2287 187.533 37.9647C187.104 29.9181 187.421 21.834 187.421 13.596Z" fill="black"/>
<path d="M52.8138 74.688C52.1825 74.688 51.6567 74.5296 51.2388 74.215C50.8208 73.8983 50.5063 73.4275 50.2951 72.7984C50.0839 72.1671 49.9783 71.3818 49.9783 70.4381C49.9783 69.5472 50.0839 68.7751 50.2951 68.124C50.5063 67.4728 50.823 66.9691 51.2498 66.6171C51.6765 66.263 52.2111 66.087 52.8512 66.087C53.1922 66.087 53.4979 66.1222 53.7663 66.197C54.0325 66.2696 54.2854 66.373 54.5208 66.5071L54.1072 67.629C53.9071 67.5168 53.7091 67.4354 53.5155 67.3804C53.3241 67.3232 53.135 67.299 52.9502 67.299C52.6092 67.299 52.3211 67.4134 52.0879 67.651C51.8547 67.8864 51.6787 68.2339 51.5578 68.6981C51.439 69.1622 51.3774 69.7408 51.3774 70.4315C51.3774 71.1046 51.4368 71.6677 51.5556 72.1209C51.6721 72.574 51.8503 72.915 52.0835 73.146C52.3189 73.3769 52.6136 73.4935 52.9634 73.4935C53.1988 73.4935 53.4385 73.4561 53.6827 73.3835C53.9247 73.3109 54.1666 73.2031 54.4086 73.0645V74.2282C54.182 74.3778 53.9247 74.4944 53.6343 74.5714C53.3417 74.6484 53.069 74.688 52.8138 74.688Z" fill="black"/>
<path d="M62.4421 67.4187H60.7945V74.5371H59.4416V67.4187H57.7808V66.2375H62.4421V67.4187Z" fill="black"/>
<path d="M65.4623 66.237H66.8833L68.003 70.8763C68.0492 71.0808 68.091 71.2832 68.1306 71.4812L68.1439 71.5476C68.179 71.7229 68.2137 71.8964 68.245 72.0663C68.2802 72.2599 68.3088 72.4491 68.3351 72.6338H68.3945C68.4297 72.3699 68.4759 72.0927 68.5331 71.8045C68.5903 71.5164 68.6607 71.2084 68.7399 70.8763L69.8222 66.237H71.2366L68.7707 75.7311C68.6145 76.3206 68.4319 76.798 68.2208 77.1653C68.0118 77.5349 67.7632 77.8054 67.4795 77.977C67.1979 78.1508 66.8635 78.2366 66.4764 78.2366C66.3466 78.2366 66.2168 78.2234 66.087 78.197C65.9572 78.175 65.8208 78.1442 65.6801 78.1068V76.8925C65.7769 76.9255 65.8736 76.9541 65.977 76.9739C66.0804 76.9937 66.1794 77.0047 66.274 77.0047C66.4698 77.0047 66.6348 76.9563 66.7667 76.8639C66.8987 76.7715 67.0197 76.6154 67.1231 76.391C67.2287 76.1688 67.3343 75.8587 67.4399 75.4605L67.6884 74.4684L65.4623 66.237Z" fill="black"/>
<path fill-rule="evenodd" clip-rule="evenodd" d="M79.9709 66.2375V73.3492H80.8354V77.4407H79.5045V74.5371H75.5186V77.4407H74.1878V73.3492H74.8565C75.1271 72.6893 75.3558 71.9656 75.5384 71.1847C75.721 70.4016 75.8618 69.5921 75.963 68.7518C76.0619 67.9137 76.1235 67.0756 76.1433 66.2375H79.9709ZM77.3378 67.4187H78.6092V73.3492H76.2555C76.4975 72.7179 76.6911 72.0646 76.8428 71.3914C76.9924 70.7161 77.1068 70.043 77.186 69.3743C77.263 68.7012 77.3136 68.05 77.3378 67.4187Z" fill="black"/>
<path fill-rule="evenodd" clip-rule="evenodd" d="M87.2544 66.1017C87.8307 66.1017 88.3103 66.2623 88.693 66.5879C89.0758 66.909 89.364 67.3468 89.5531 67.9011C89.7445 68.4555 89.8391 69.0846 89.8391 69.7863V70.6882H85.8862C85.895 71.6407 86.049 72.3534 86.3437 72.8285C86.6385 73.3015 87.0872 73.5369 87.69 73.5369C88.0001 73.5369 88.3037 73.4929 88.5941 73.4027C88.8888 73.3125 89.1946 73.1651 89.5157 72.9583V74.155C89.2166 74.3354 88.902 74.4695 88.5743 74.5575C88.2443 74.6455 87.8945 74.6873 87.525 74.6873C86.8167 74.6873 86.2447 74.5047 85.8026 74.1418C85.3604 73.7788 85.0393 73.2773 84.8347 72.635C84.6345 71.9948 84.5312 71.2601 84.5312 70.433C84.5312 69.5047 84.6345 68.7194 84.8391 68.0771C85.0459 67.4326 85.3494 66.942 85.752 66.6077C86.1567 66.2689 86.6583 66.1017 87.2544 66.1017ZM86.3019 67.7933C86.5351 67.4018 86.8541 67.2082 87.261 67.2082C87.5558 67.2082 87.8022 67.316 87.9935 67.5294C88.1871 67.7449 88.3301 68.0375 88.4225 68.4071C88.5149 68.7744 88.5611 69.1814 88.5611 69.6279H85.8994C85.9346 68.7964 86.0688 68.1827 86.3019 67.7933Z" fill="black"/>
<path d="M95.5358 66.237V69.651H98.0479V66.237H99.4139V74.5366H98.0479V70.8235H95.5358V74.5366H94.1675V66.237H95.5358Z" fill="black"/>
<path d="M105.309 66.237V69.4772C105.309 69.893 105.386 70.1987 105.544 70.3923C105.701 70.5859 105.918 70.6805 106.202 70.6805C106.503 70.6805 106.8 70.6057 107.093 70.4583C107.383 70.3109 107.658 70.1217 107.918 69.8908V66.237H109.271V74.5366H107.918V71.0412C107.616 71.3074 107.289 71.5076 106.937 71.6462C106.589 71.7825 106.233 71.8529 105.881 71.8529C105.228 71.8529 104.741 71.655 104.429 71.2546C104.11 70.8587 103.956 70.2493 103.956 69.4332V66.237H105.309Z" fill="black"/>
<path fill-rule="evenodd" clip-rule="evenodd" d="M116.372 66.1017C116.948 66.1017 117.43 66.2623 117.811 66.5879C118.193 66.909 118.481 67.3468 118.675 67.9011C118.864 68.4555 118.959 69.0846 118.959 69.7863V70.6882H115.006C115.015 71.6407 115.164 72.3534 115.461 72.8285C115.758 73.3015 116.209 73.5369 116.81 73.5369C117.12 73.5369 117.421 73.4929 117.712 73.4027C118.008 73.3125 118.314 73.1651 118.635 72.9583V74.155C118.336 74.3354 118.022 74.4695 117.692 74.5575C117.364 74.6455 117.012 74.6873 116.642 74.6873C115.939 74.6873 115.362 74.5047 114.92 74.1418C114.482 73.7788 114.159 73.2773 113.952 72.635C113.752 71.9948 113.653 71.2601 113.653 70.433C113.653 69.5047 113.752 68.7194 113.957 68.0771C114.163 67.4326 114.469 66.942 114.872 66.6077C115.276 66.2689 115.776 66.1017 116.372 66.1017ZM115.422 67.7933C115.655 67.4018 115.972 67.2082 116.381 67.2082C116.678 67.2082 116.917 67.316 117.111 67.5294C117.305 67.7449 117.45 68.0375 117.54 68.4071C117.635 68.7744 117.683 69.1814 117.683 69.6279H115.019C115.052 68.7964 115.186 68.1827 115.422 67.7933Z" fill="black"/>
<path d="M125.79 74.688C125.158 74.688 124.635 74.5296 124.217 74.215C123.797 73.8983 123.482 73.4275 123.271 72.7984C123.062 72.1671 122.959 71.3818 122.959 70.4381C122.959 69.5472 123.062 68.7751 123.271 68.124C123.482 67.4728 123.801 66.9691 124.226 66.6171C124.65 66.263 125.189 66.087 125.829 66.087C126.168 66.087 126.474 66.1222 126.744 66.197C127.01 66.2696 127.263 66.373 127.499 66.5071L127.083 67.629C126.885 67.5168 126.687 67.4354 126.494 67.3804C126.3 67.3232 126.111 67.299 125.926 67.299C125.583 67.299 125.299 67.4134 125.064 67.651C124.831 67.8864 124.655 68.2339 124.536 68.6981C124.415 69.1622 124.355 69.7408 124.355 70.4315C124.355 71.1046 124.415 71.6677 124.531 72.1209C124.65 72.574 124.828 72.915 125.064 73.146C125.295 73.3769 125.592 73.4935 125.939 73.4935C126.177 73.4935 126.417 73.4561 126.659 73.3835C126.903 73.3109 127.142 73.2031 127.384 73.0645V74.2282C127.16 74.3778 126.903 74.4944 126.61 74.5714C126.318 74.6484 126.047 74.688 125.79 74.688Z" fill="black"/>
<path d="M135.156 66.237H136.647L134.285 70.1613L136.832 74.5366H135.296L132.93 70.2449V74.5366H131.563V66.237H132.93V70.1767L135.156 66.237Z" fill="black"/>
<path d="M141.948 66.237V70.6739C141.948 70.8345 141.948 70.9906 141.944 71.1424C141.939 71.2964 141.931 71.4504 141.922 71.6044C141.917 71.7606 141.909 71.9189 141.898 72.0817C141.889 72.2445 141.876 72.4205 141.858 72.6053L144.573 66.237H146.108V74.5366H144.792V70.1987C144.792 69.9744 144.797 69.75 144.801 69.5256C144.806 69.3035 144.814 69.0791 144.823 68.8525C144.832 68.6281 144.843 68.4016 144.861 68.1772L142.137 74.5366H140.613V66.237H141.948Z" fill="black"/>
<path d="M152.166 66.2364V70.6732C152.166 70.8338 152.161 70.99 152.157 71.144L152.157 71.1505C152.152 71.3002 152.148 71.452 152.139 71.6059C152.131 71.7599 152.122 71.9183 152.113 72.0833C152.1 72.246 152.091 72.4198 152.076 72.6046L154.79 66.2364H156.323V74.5382H155.01V70.1981C155.01 69.9759 155.01 69.7493 155.014 69.525C155.017 69.3028 155.025 69.0784 155.039 68.854C155.047 68.6275 155.061 68.4031 155.074 68.1765L152.355 74.5382H150.828V66.2364H152.166Z" fill="black"/>
<path d="M155.886 62.8774C155.85 63.3921 155.74 63.8276 155.556 64.1774C155.371 64.5272 155.116 64.7911 154.79 64.9649C154.465 65.1409 154.064 65.2289 153.596 65.2289C153.114 65.2289 152.711 65.1453 152.384 64.9781C152.058 64.8109 151.807 64.5514 151.636 64.2038C151.46 63.854 151.356 63.4119 151.323 62.8774H152.456C152.5 63.4119 152.608 63.8012 152.784 64.041C152.955 64.283 153.226 64.4018 153.596 64.4018C153.97 64.4018 154.245 64.2786 154.425 64.0256C154.601 63.7749 154.713 63.3921 154.75 62.8774H155.886Z" fill="black"/>
<path d="M169.153 74.688C168.521 74.688 167.998 74.5296 167.576 74.215C167.16 73.8983 166.841 73.4275 166.632 72.7984C166.421 72.1671 166.317 71.3818 166.317 70.4381C166.317 69.5472 166.421 68.7751 166.632 68.124C166.841 67.4728 167.164 66.9691 167.589 66.6171C168.013 66.263 168.548 66.087 169.188 66.087C169.531 66.087 169.837 66.1222 170.103 66.197C170.374 66.2696 170.622 66.373 170.858 66.5071L170.446 67.629C170.244 67.5168 170.046 67.4354 169.852 67.3804C169.659 67.3232 169.472 67.299 169.287 67.299C168.946 67.299 168.658 67.4134 168.427 67.651C168.194 67.8864 168.013 68.2339 167.895 68.6981C167.774 69.1622 167.714 69.7408 167.714 70.4315C167.714 71.1046 167.774 71.6677 167.895 72.1209C168.009 72.574 168.187 72.915 168.422 73.146C168.658 73.3769 168.95 73.4935 169.302 73.4935C169.54 73.4935 169.775 73.4561 170.022 73.3835C170.261 73.3109 170.506 73.2031 170.748 73.0645V74.2282C170.519 74.3778 170.261 74.4944 169.969 74.5714C169.681 74.6484 169.406 74.688 169.153 74.688Z" fill="black"/>
<path fill-rule="evenodd" clip-rule="evenodd" d="M180.289 70.3787C180.289 71.01 180.234 71.5907 180.122 72.1165C180.01 72.6422 179.838 73.0976 179.601 73.4803C179.37 73.8653 179.073 74.1622 178.712 74.3734C178.351 74.5824 177.922 74.688 177.419 74.688C176.946 74.688 176.534 74.5846 176.178 74.3756C175.821 74.1688 175.529 73.8741 175.291 73.4935C175.056 73.1108 174.88 72.6554 174.759 72.1275C174.645 71.5995 174.583 71.0166 174.583 70.3787C174.583 69.4834 174.686 68.7135 174.889 68.0756C175.091 67.4355 175.404 66.9471 175.826 66.6017C176.246 66.2586 176.787 66.087 177.449 66.087C178.05 66.087 178.562 66.2498 178.987 66.5775C179.409 66.9009 179.735 67.3826 179.959 68.0206C180.181 68.6563 180.289 69.4416 180.289 70.3787ZM176.129 72.1055C176.026 71.6413 175.975 71.0694 175.975 70.3875C175.975 69.3448 176.092 68.5661 176.319 68.0514C176.552 67.5322 176.926 67.2749 177.441 67.2749C177.784 67.2749 178.059 67.3914 178.274 67.6202C178.485 67.8512 178.644 68.1966 178.747 68.6585C178.851 69.1204 178.901 69.6946 178.901 70.3787C178.901 71.076 178.851 71.6567 178.747 72.1209C178.644 72.585 178.485 72.9304 178.274 73.1591C178.059 73.3857 177.784 73.5001 177.449 73.5001C177.111 73.5001 176.831 73.3835 176.611 73.1504C176.391 72.9172 176.233 72.5696 176.129 72.1055Z" fill="black"/>
<path fill-rule="evenodd" clip-rule="evenodd" d="M189.551 68.2966C189.551 68.7828 189.448 69.1831 189.243 69.4955C189.041 69.8101 188.727 70.0212 188.311 70.1312V70.1928C188.775 70.2676 189.131 70.4744 189.384 70.8131C189.637 71.1497 189.763 71.5808 189.763 72.111C189.763 72.6213 189.664 73.0569 189.47 73.4198C189.272 73.7828 188.988 74.0599 188.61 74.2513C188.234 74.4427 187.756 74.5373 187.184 74.5373H184.659V66.2377H187.085C187.631 66.2377 188.086 66.3169 188.452 66.473C188.812 66.6314 189.087 66.8624 189.272 67.166C189.461 67.4673 189.551 67.8457 189.551 68.2966ZM188.064 71.0089C188.276 71.2025 188.379 71.528 188.379 71.99C188.379 72.4915 188.276 72.8611 188.069 73.0987C187.86 73.3362 187.536 73.455 187.103 73.455H186.025V70.7185H187.134C187.541 70.7185 187.855 70.8153 188.064 71.0089ZM187.88 67.6059C188.073 67.7973 188.168 68.0745 188.168 68.4418C188.168 68.851 188.086 69.1589 187.919 69.3657C187.752 69.5703 187.477 69.6737 187.103 69.6737H186.025V67.32H186.986C187.391 67.32 187.688 67.4145 187.88 67.6059Z" fill="black"/>
<path fill-rule="evenodd" clip-rule="evenodd" d="M196.473 66.1017C197.049 66.1017 197.531 66.2623 197.912 66.5879C198.294 66.909 198.583 67.3468 198.776 67.9011C198.965 68.4555 199.06 69.0846 199.06 69.7863V70.6882H195.107C195.116 71.6407 195.265 72.3534 195.562 72.8285C195.859 73.3015 196.31 73.5369 196.911 73.5369C197.221 73.5369 197.522 73.4929 197.813 73.4027C198.11 73.3125 198.415 73.1651 198.737 72.9583V74.155C198.437 74.3354 198.123 74.4695 197.793 74.5575C197.465 74.6455 197.113 74.6873 196.744 74.6873C196.04 74.6873 195.463 74.5047 195.021 74.1418C194.584 73.7788 194.26 73.2773 194.053 72.635C193.853 71.9948 193.754 71.2601 193.754 70.433C193.754 69.5047 193.853 68.7194 194.058 68.0771C194.265 67.4326 194.57 66.942 194.973 66.6077C195.378 66.2689 195.877 66.1017 196.473 66.1017ZM195.523 67.7933C195.756 67.4018 196.073 67.2082 196.482 67.2082C196.779 67.2082 197.019 67.316 197.212 67.5294C197.406 67.7449 197.551 68.0375 197.641 68.4071C197.736 68.7744 197.784 69.1814 197.784 69.6279H195.12C195.153 68.7964 195.287 68.1827 195.523 67.7933Z" fill="black"/>
<path d="M207.244 67.4187H205.599V74.5371H204.246V67.4187H202.583V66.2375H207.244V67.4187Z" fill="black"/>
<path d="M68.8908 32.3336H62.5116C62.5116 29.5333 62.5424 26.7595 62.494 23.99C62.4742 22.9473 62.5798 21.6979 62.0606 20.9258C61.4645 20.0437 60.2436 19.1044 59.278 19.0846C58.3233 19.0648 57.0386 19.9623 56.4689 20.8312C55.9036 21.6891 55.919 23.0133 55.9102 24.1352C55.8637 31.7326 55.8659 39.3279 55.8681 46.9232L55.8684 47.8747C55.8684 48.6622 55.853 49.4761 56.0355 50.2306C56.4733 52.0168 57.8393 53.1849 59.4891 52.6481C60.5912 52.2874 61.933 50.7586 62.0496 49.6389C62.3906 46.3459 62.1706 42.9957 62.1706 39.4519H68.7456C68.7456 43.5874 69.1394 47.6416 68.6466 51.5879C68.0043 56.7133 63.4333 59.7841 58.1121 59.3551C52.7623 58.9196 49.0558 55.2042 49.0052 49.9183C48.915 40.686 48.9194 31.4537 48.992 22.2214C49.0316 17.0806 52.56 13.4049 57.6084 12.9605C65.1293 12.3006 68.8556 15.6926 68.8886 23.2399C68.8996 26.2073 68.8908 29.177 68.8908 32.3336Z" fill="black"/>
</g>
<defs>
<linearGradient id="paint0_linear_93_41871" x1="21.0737" y1="0" x2="21.0737" y2="80" gradientUnits="userSpaceOnUse">
<stop stop-color="#E2D7D3"/>
<stop offset="1" stop-color="#7DAAE3"/>
</linearGradient>
<clipPath id="clip0_93_41871">
<rect width="208" height="80" fill="white"/>
</clipPath>
</defs>
</svg>
