<svg width="104" height="40" viewBox="0 0 104 40" fill="none" xmlns="http://www.w3.org/2000/svg">
<g clip-path="url(#clip0_93_42411)">
<path d="M18.4341 0V17.8751H14.0347C14.0347 15.8172 14.0413 13.766 14.0347 11.7147C14.0237 8.65816 11.428 7.10295 8.6992 8.51628C7.67633 9.04531 7.0934 9.85262 7.0934 11.0372C7.0989 18.1181 7.0714 25.2002 7.12309 32.2822C7.13849 34.5765 8.44073 35.7688 10.6834 35.8161C12.6334 35.8579 13.9489 34.7239 14.0611 32.5594C14.1996 29.8834 14.1216 27.1964 14.0985 24.5139C14.0963 24.196 13.9247 23.6648 13.7146 23.5966C12.1715 23.1038 12.7401 21.9237 12.7137 20.8117H19.4625C19.4977 21.8687 20.0267 22.9377 18.6772 23.5966C18.4253 23.7198 18.3439 24.3786 18.3395 24.7921C18.3109 27.1667 18.3417 29.5425 18.3274 31.9182C18.3197 33.2072 18.9434 34.0321 20.1609 34.3016C20.8736 34.46 21.0903 34.7756 21.0727 35.463C21.0353 36.9479 21.0617 38.4327 21.0617 40H0.124632C0.124632 38.381 0.0993339 36.7686 0.154327 35.1584C0.162026 34.9428 0.548081 34.6568 0.816449 34.548C2.41126 33.9045 3.01729 33.0884 3.02059 31.3484C3.02938 26.3781 3.03158 21.4078 3.00959 16.4386C2.99749 13.9859 2.58394 13.5185 0.0212455 13.0543C0.0212455 11.7169 -0.051347 10.3256 0.0718382 8.95073C0.102635 8.59987 0.708661 8.19952 1.13431 8.00154C6.35758 5.57743 11.5974 3.19072 16.8272 0.782005C17.2958 0.566431 17.7236 0.262868 18.1702 0H18.4341Z" fill="url(#paint0_linear_93_42411)"/>
<path d="M37.1827 6.50963H46.6009V29.6256H43.7072V9.61895H40.2976V29.5035H37.1827V6.50963Z" fill="black"/>
<path fill-rule="evenodd" clip-rule="evenodd" d="M57.3408 4.8894C57.8038 5.7737 58.2262 6.5788 58.6617 7.4114C56.6094 9.1294 52.8061 8.90722 52.8116 12.7491C52.9798 12.8437 53.0645 12.9338 53.1228 12.9184C57.1494 11.8571 58.9202 14.8146 59.1996 17.7711C59.4273 20.1666 59.358 22.6039 59.226 25.0137C59.0929 27.4565 57.3551 29.4209 55.3368 29.7431C53.0535 30.1061 50.8879 28.9732 49.9662 26.8417C49.7143 26.2587 49.6054 25.5713 49.601 24.9312C49.568 20.7132 49.5922 16.4952 49.5779 12.2772C49.568 9.63644 50.5777 7.72487 53.1866 6.76688C54.5779 6.25544 55.8967 5.54933 57.3408 4.8894ZM52.6466 21.1565H52.662C52.662 20.017 52.6235 18.8764 52.6741 17.7392C52.7181 16.7438 53.0942 15.887 54.2425 15.8177C55.3214 15.7517 55.9154 16.4952 55.9528 17.4411C56.0529 19.9312 56.0859 22.429 55.9913 24.9191C55.9561 25.8441 55.2357 26.581 54.2172 26.526C53.1811 26.4699 52.7214 25.6505 52.6642 24.7057C52.5938 23.5256 52.6466 22.3388 52.6466 21.1565Z" fill="black"/>
<path d="M61.7509 6.36136H69.8427V9.71705H64.9725V29.4828H61.7509V6.36136Z" fill="black"/>
<path fill-rule="evenodd" clip-rule="evenodd" d="M75.6112 12.6296C76.0038 10.1604 75.7904 9.92504 72.845 9.68087V6.48575C77.184 5.41998 79.1637 8.35883 79.1791 11.5209C79.1989 15.828 79.211 20.1362 79.1769 24.4433C79.1538 27.303 77.1796 29.5412 74.7555 29.5621C71.3635 29.5929 69.431 27.8364 69.3342 24.5621C69.277 22.6296 69.3122 20.6949 69.3045 18.7614C69.2902 14.5126 71.3998 12.4613 75.6112 12.6296ZM72.5062 21.2273H72.4864C72.4864 20.0834 72.46 18.9396 72.4941 17.7968C72.5227 16.7805 72.8956 15.949 74.0581 15.8786C75.3021 15.8038 75.8245 16.6441 75.8575 17.7044C75.9367 20.1208 75.9444 22.5416 75.8905 24.9591C75.8663 25.9853 75.257 26.7673 74.167 26.7695C73.0485 26.7706 72.5645 25.9413 72.5194 24.9195C72.4644 23.691 72.5062 22.458 72.5062 21.2273Z" fill="black"/>
<path d="M90.9811 16.3263H87.7915C87.7915 14.9448 87.8058 13.559 87.7838 12.1743C87.775 11.6518 87.8465 11.0128 87.5826 10.6411C87.246 10.1703 86.6169 9.67318 86.0911 9.64568C85.6435 9.62259 85.0529 10.1714 84.7328 10.6169C84.4842 10.9644 84.493 11.5386 84.4897 12.0137C84.4688 16.1041 84.4688 20.1956 84.471 24.286C84.471 24.6347 84.4028 25.1153 84.5931 25.3045C85.0771 25.7829 85.7238 26.477 86.244 26.4286C86.7423 26.3835 87.5001 25.5476 87.5595 24.9976C87.7332 23.35 87.6211 21.6705 87.6211 19.891H90.8085C90.8085 22.006 91.0614 24.1749 90.7425 26.2559C90.3608 28.7427 88.0038 30.1087 85.3718 29.8107C82.9103 29.5313 81.0834 27.7154 81.0482 25.2693C80.9811 20.5201 80.9657 15.7675 81.0471 11.0183C81.09 8.44243 83.1061 6.63534 85.6952 6.58475C89.3346 6.51326 90.9613 8.08937 90.98 11.7156C90.9877 13.2038 90.9811 14.6919 90.9811 16.3263Z" fill="black"/>
<path d="M93.7105 6.79801H96.7076C96.7351 7.25445 96.7824 7.6735 96.7835 8.09255C96.7912 11.3449 96.8077 14.5972 96.7813 17.8495C96.7725 18.9669 97.1212 19.7775 98.3211 19.9029C99.3528 20.0096 100.027 19.1957 100.033 17.8847C100.047 14.2397 100.037 10.5937 100.037 6.82221H103.403C103.403 10.9225 103.419 14.9557 103.396 18.99C103.383 21.2723 103.43 23.5655 103.219 25.8323C102.998 28.1948 101.315 29.5983 98.9502 29.6687C97.505 29.7116 96.0576 29.6764 94.5123 29.6764V26.2415C95.434 26.2415 96.304 26.247 97.174 26.2404C99.6146 26.2217 100.16 25.5793 99.8345 22.9881C99.4683 23.0079 99.0932 23.0376 98.7171 23.0497C96.0488 23.1464 93.9063 21.6143 93.7666 18.9823C93.5521 14.959 93.7105 10.917 93.7105 6.79801Z" fill="black"/>
<path d="M26.4069 37.344C26.0912 37.344 25.8284 37.2648 25.6194 37.1075C25.4104 36.9491 25.2531 36.7138 25.1476 36.3992C25.042 36.0835 24.9892 35.6909 24.9892 35.219C24.9892 34.7736 25.042 34.3875 25.1476 34.062C25.2531 33.7364 25.4115 33.4845 25.6249 33.3086C25.8383 33.1315 26.1055 33.0435 26.4256 33.0435C26.5961 33.0435 26.749 33.0611 26.8831 33.0985C27.0162 33.1348 27.1427 33.1865 27.2604 33.2536L27.0536 33.8145C26.9535 33.7584 26.8545 33.7177 26.7578 33.6902C26.6621 33.6616 26.5675 33.6495 26.4751 33.6495C26.3046 33.6495 26.1605 33.7067 26.0439 33.8255C25.9274 33.9432 25.8394 34.117 25.7789 34.349C25.7195 34.5811 25.6887 34.8704 25.6887 35.2157C25.6887 35.5523 25.7184 35.8339 25.7778 36.0604C25.8361 36.287 25.9252 36.4575 26.0417 36.573C26.1594 36.6885 26.3068 36.7468 26.4817 36.7468C26.5994 36.7468 26.7193 36.7281 26.8414 36.6918C26.9623 36.6555 27.0833 36.6016 27.2043 36.5323V37.1141C27.091 37.1889 26.9623 37.2472 26.8172 37.2857C26.6709 37.3242 26.5345 37.344 26.4069 37.344Z" fill="black"/>
<path d="M31.221 33.7094H30.3972V37.2685H29.7208V33.7094H28.8904V33.1187H31.221V33.7094Z" fill="black"/>
<path d="M32.7311 33.1185H33.4417L34.0015 35.4381C34.0246 35.5404 34.0455 35.6416 34.0653 35.7406L34.0719 35.7738C34.0895 35.8615 34.1069 35.9482 34.1225 36.0332C34.1401 36.1299 34.1544 36.2245 34.1676 36.3169H34.1973C34.2149 36.1849 34.238 36.0464 34.2666 35.9023C34.2952 35.7582 34.3304 35.6042 34.3699 35.4381L34.9111 33.1185H35.6183L34.3853 37.8655C34.3073 38.1603 34.216 38.399 34.1104 38.5827C34.0059 38.7674 33.8816 38.9027 33.7397 38.9885C33.5989 39.0754 33.4318 39.1183 33.2382 39.1183C33.1733 39.1183 33.1084 39.1117 33.0435 39.0985C32.9786 39.0875 32.9104 39.0721 32.84 39.0534V38.4463C32.8884 38.4628 32.9368 38.4771 32.9885 38.487C33.0402 38.4969 33.0897 38.5024 33.137 38.5024C33.2349 38.5024 33.3174 38.4782 33.3834 38.432C33.4494 38.3858 33.5099 38.3077 33.5615 38.1955C33.6143 38.0844 33.6671 37.9293 33.7199 37.7303L33.8442 37.2342L32.7311 33.1185Z" fill="black"/>
<path fill-rule="evenodd" clip-rule="evenodd" d="M39.9854 33.1187V36.6746H40.4177V38.7204H39.7523V37.2685H37.7593V38.7204H37.0939V36.6746H37.4282C37.5635 36.3446 37.6779 35.9828 37.7692 35.5923C37.8605 35.2008 37.9309 34.796 37.9815 34.3759C38.031 33.9568 38.0618 33.5378 38.0717 33.1187H39.9854ZM38.6689 33.7094H39.3046V36.6746H38.1278C38.2487 36.3589 38.3455 36.0323 38.4214 35.6957C38.4962 35.3581 38.5534 35.0215 38.593 34.6871C38.6315 34.3506 38.6568 34.025 38.6689 33.7094Z" fill="black"/>
<path fill-rule="evenodd" clip-rule="evenodd" d="M43.6272 33.0509C43.9154 33.0509 44.1551 33.1312 44.3465 33.2939C44.5379 33.4545 44.682 33.6734 44.7766 33.9506C44.8723 34.2277 44.9196 34.5423 44.9196 34.8932V35.3441H42.9431C42.9475 35.8203 43.0245 36.1767 43.1719 36.4143C43.3192 36.6507 43.5436 36.7684 43.845 36.7684C44.0001 36.7684 44.1518 36.7464 44.297 36.7013C44.4444 36.6562 44.5973 36.5825 44.7579 36.4792V37.0775C44.6083 37.1677 44.451 37.2348 44.2871 37.2788C44.1222 37.3228 43.9473 37.3437 43.7625 37.3437C43.4083 37.3437 43.1224 37.2524 42.9013 37.0709C42.6802 36.8894 42.5196 36.6386 42.4174 36.3175C42.3173 35.9974 42.2656 35.6301 42.2656 35.2165C42.2656 34.7524 42.3173 34.3597 42.4196 34.0385C42.5229 33.7163 42.6747 33.471 42.876 33.3038C43.0784 33.1345 43.3291 33.0509 43.6272 33.0509ZM43.151 33.8967C43.2676 33.7009 43.427 33.6041 43.6305 33.6041C43.7779 33.6041 43.9011 33.658 43.9968 33.7647C44.0936 33.8725 44.165 34.0188 44.2112 34.2035C44.2574 34.3872 44.2805 34.5907 44.2805 34.814H42.9497C42.9673 34.3982 43.0344 34.0913 43.151 33.8967Z" fill="black"/>
<path d="M47.7679 33.1185V34.8255H49.0239V33.1185H49.707V37.2683H49.0239V35.4117H47.7679V37.2683H47.0838V33.1185H47.7679Z" fill="black"/>
<path d="M52.6545 33.1185V34.7386C52.6545 34.9465 52.693 35.0994 52.7722 35.1962C52.8503 35.2929 52.9591 35.3402 53.101 35.3402C53.2517 35.3402 53.4002 35.3028 53.5465 35.2292C53.6917 35.1555 53.8291 35.0609 53.9589 34.9454V33.1185H54.6354V37.2683H53.9589V35.5206C53.8082 35.6537 53.6444 35.7538 53.4684 35.8231C53.2946 35.8913 53.1164 35.9265 52.9404 35.9265C52.6138 35.9265 52.3707 35.8275 52.2145 35.6273C52.0551 35.4293 51.9781 35.1247 51.9781 34.7166V33.1185H52.6545Z" fill="black"/>
<path fill-rule="evenodd" clip-rule="evenodd" d="M58.186 33.0509C58.4741 33.0509 58.715 33.1312 58.9053 33.2939C59.0966 33.4545 59.2407 33.6734 59.3375 33.9506C59.4321 34.2277 59.4794 34.5423 59.4794 34.8932V35.3441H57.5029C57.5073 35.8203 57.5821 36.1767 57.7306 36.4143C57.8791 36.6507 58.1046 36.7684 58.4048 36.7684C58.5599 36.7684 58.7106 36.7464 58.8558 36.7013C59.0042 36.6562 59.1571 36.5825 59.3177 36.4792V37.0775C59.1681 37.1677 59.0109 37.2348 58.8459 37.2788C58.682 37.3228 58.506 37.3437 58.3212 37.3437C57.9693 37.3437 57.6811 37.2524 57.46 37.0709C57.2412 36.8894 57.0795 36.6386 56.9761 36.3175C56.876 35.9974 56.8265 35.6301 56.8265 35.2165C56.8265 34.7524 56.876 34.3597 56.9783 34.0385C57.0817 33.7163 57.2346 33.471 57.4358 33.3038C57.6382 33.1345 57.8879 33.0509 58.186 33.0509ZM57.7108 33.8967C57.8274 33.7009 57.9858 33.6041 58.1903 33.6041C58.3388 33.6041 58.4587 33.658 58.5555 33.7647C58.6523 33.8725 58.7249 34.0188 58.77 34.2035C58.8173 34.3872 58.8415 34.5907 58.8415 34.814H57.5095C57.526 34.3982 57.5931 34.0913 57.7108 33.8967Z" fill="black"/>
<path d="M62.8948 37.344C62.5791 37.344 62.3174 37.2648 62.1084 37.1075C61.8983 36.9491 61.741 36.7138 61.6355 36.3992C61.531 36.0835 61.4793 35.6909 61.4793 35.219C61.4793 34.7736 61.531 34.3875 61.6355 34.062C61.741 33.7364 61.9005 33.4845 62.1128 33.3086C62.3251 33.1315 62.5945 33.0435 62.9146 33.0435C63.084 33.0435 63.2369 33.0611 63.3722 33.0985C63.5052 33.1348 63.6317 33.1865 63.7494 33.2536L63.5415 33.8145C63.4425 33.7584 63.3436 33.7177 63.2468 33.6902C63.15 33.6616 63.0554 33.6495 62.963 33.6495C62.7914 33.6495 62.6495 33.7067 62.5318 33.8255C62.4153 33.9432 62.3273 34.117 62.2679 34.349C62.2074 34.5811 62.1777 34.8704 62.1777 35.2157C62.1777 35.5523 62.2074 35.8339 62.2657 36.0604C62.3251 36.287 62.4142 36.4575 62.5318 36.573C62.6473 36.6885 62.7958 36.7468 62.9696 36.7468C63.0884 36.7468 63.2083 36.7281 63.3293 36.6918C63.4513 36.6555 63.5712 36.6016 63.6922 36.5323V37.1141C63.58 37.1889 63.4513 37.2472 63.3051 37.2857C63.1588 37.3242 63.0235 37.344 62.8948 37.344Z" fill="black"/>
<path d="M67.5778 33.1185H68.3235L67.1423 35.0807L68.4159 37.2683H67.6482L66.4648 35.1225V37.2683H65.7817V33.1185H66.4648V35.0884L67.5778 33.1185Z" fill="black"/>
<path d="M70.9741 33.1185V35.3369C70.9741 35.4172 70.9741 35.4953 70.9719 35.5712C70.9697 35.6482 70.9653 35.7252 70.9609 35.8022C70.9587 35.8803 70.9543 35.9595 70.9488 36.0409C70.9444 36.1222 70.9378 36.2102 70.929 36.3026L72.2863 33.1185H73.054V37.2683H72.3962V35.0994C72.3962 34.9872 72.3984 34.875 72.4006 34.7628C72.4028 34.6517 72.4072 34.5395 72.4116 34.4262C72.416 34.3141 72.4215 34.2008 72.4303 34.0886L71.0687 37.2683H70.3065V33.1185H70.9741Z" fill="black"/>
<path d="M76.0829 33.1182V35.3366C76.0829 35.4169 76.0807 35.495 76.0785 35.572L76.0784 35.5753C76.0762 35.6501 76.074 35.726 76.0697 35.803C76.0653 35.8799 76.0609 35.9591 76.0565 36.0416C76.0499 36.123 76.0455 36.2099 76.0378 36.3023L77.395 33.1182H78.1616V37.2691H77.505V35.099C77.505 34.988 77.505 34.8747 77.5072 34.7625C77.5083 34.6514 77.5127 34.5392 77.5193 34.427C77.5237 34.3137 77.5303 34.2015 77.5369 34.0883L76.1775 37.2691H75.4142V33.1182H76.0829Z" fill="black"/>
<path d="M77.9428 31.4387C77.9252 31.6961 77.8702 31.9138 77.7778 32.0887C77.6854 32.2636 77.5578 32.3956 77.395 32.4825C77.2323 32.5704 77.0321 32.6144 76.7978 32.6144C76.5569 32.6144 76.3556 32.5726 76.1918 32.4891C76.029 32.4055 75.9036 32.2757 75.8178 32.1019C75.7298 31.927 75.6781 31.706 75.6616 31.4387H76.2281C76.2501 31.706 76.304 31.9006 76.3919 32.0205C76.4777 32.1415 76.613 32.2009 76.7978 32.2009C76.9848 32.2009 77.1223 32.1393 77.2124 32.0128C77.3004 31.8874 77.3565 31.6961 77.3752 31.4387H77.9428Z" fill="black"/>
<path d="M84.5764 37.344C84.2607 37.344 83.999 37.2648 83.7878 37.1075C83.5799 36.9491 83.4204 36.7138 83.3159 36.3992C83.2104 36.0835 83.1587 35.6909 83.1587 35.219C83.1587 34.7736 83.2104 34.3875 83.3159 34.062C83.4204 33.7364 83.5821 33.4845 83.7944 33.3086C84.0067 33.1315 84.2739 33.0435 84.594 33.0435C84.7656 33.0435 84.9185 33.0611 85.0515 33.0985C85.1868 33.1348 85.3111 33.1865 85.4288 33.2536L85.2231 33.8145C85.1219 33.7584 85.0229 33.7177 84.9262 33.6902C84.8294 33.6616 84.7359 33.6495 84.6435 33.6495C84.473 33.6495 84.3289 33.7067 84.2134 33.8255C84.0969 33.9432 84.0067 34.117 83.9473 34.349C83.8868 34.5811 83.8571 34.8704 83.8571 35.2157C83.8571 35.5523 83.8868 35.8339 83.9473 36.0604C84.0045 36.287 84.0935 36.4575 84.2112 36.573C84.3289 36.6885 84.4752 36.7468 84.6512 36.7468C84.77 36.7468 84.8877 36.7281 85.0108 36.6918C85.1307 36.6555 85.2528 36.6016 85.3738 36.5323V37.1141C85.2594 37.1889 85.1307 37.2472 84.9844 37.2857C84.8404 37.3242 84.7029 37.344 84.5764 37.344Z" fill="black"/>
<path fill-rule="evenodd" clip-rule="evenodd" d="M90.1446 35.1893C90.1446 35.505 90.1171 35.7954 90.061 36.0582C90.0049 36.3211 89.9191 36.5488 89.8003 36.7402C89.6848 36.9326 89.5364 37.0811 89.356 37.1867C89.1756 37.2912 88.9611 37.344 88.7093 37.344C88.4728 37.344 88.2671 37.2923 88.0889 37.1878C87.9107 37.0844 87.7645 36.937 87.6457 36.7468C87.528 36.5554 87.44 36.3277 87.3795 36.0637C87.3223 35.7998 87.2915 35.5083 87.2915 35.1893C87.2915 34.7417 87.3432 34.3567 87.4444 34.0378C87.5456 33.7177 87.7018 33.4736 87.913 33.3009C88.123 33.1293 88.3936 33.0435 88.7247 33.0435C89.0249 33.0435 89.2812 33.1249 89.4935 33.2888C89.7046 33.4505 89.8674 33.6913 89.9796 34.0103C90.0907 34.3281 90.1446 34.7208 90.1446 35.1893ZM88.0647 36.0527C88.013 35.8207 87.9877 35.5347 87.9877 35.1937C87.9877 34.6724 88.046 34.2831 88.1593 34.0257C88.2759 33.7661 88.4629 33.6374 88.7203 33.6374C88.8918 33.6374 89.0293 33.6957 89.1371 33.8101C89.2427 33.9256 89.3219 34.0983 89.3736 34.3292C89.4253 34.5602 89.4506 34.8473 89.4506 35.1893C89.4506 35.538 89.4253 35.8284 89.3736 36.0604C89.3219 36.2925 89.2427 36.4652 89.1371 36.5796C89.0293 36.6929 88.8918 36.7501 88.7247 36.7501C88.5553 36.7501 88.4156 36.6918 88.3056 36.5752C88.1956 36.4586 88.1164 36.2848 88.0647 36.0527Z" fill="black"/>
<path fill-rule="evenodd" clip-rule="evenodd" d="M94.7757 34.1483C94.7757 34.3914 94.724 34.5916 94.6217 34.7477C94.5205 34.905 94.3633 35.0106 94.1554 35.0656V35.0964C94.3874 35.1338 94.5656 35.2372 94.6921 35.4066C94.8186 35.5748 94.8813 35.7904 94.8813 36.0555C94.8813 36.3107 94.8318 36.5284 94.735 36.7099C94.636 36.8914 94.4941 37.03 94.3049 37.1257C94.1169 37.2213 93.8782 37.2686 93.5922 37.2686H92.3296V33.1188H93.5427C93.8155 33.1188 94.0432 33.1584 94.2258 33.2365C94.4061 33.3157 94.5436 33.4312 94.636 33.583C94.7306 33.7337 94.7757 33.9228 94.7757 34.1483ZM94.0322 35.5045C94.1378 35.6012 94.1895 35.764 94.1895 35.995C94.1895 36.2458 94.1378 36.4305 94.0344 36.5493C93.9299 36.6681 93.7682 36.7275 93.5515 36.7275H93.0126V35.3593H93.5669C93.7704 35.3593 93.9277 35.4077 94.0322 35.5045ZM93.9398 33.803C94.0366 33.8986 94.0839 34.0372 94.0839 34.2209C94.0839 34.4255 94.0432 34.5795 93.9596 34.6829C93.876 34.7851 93.7385 34.8368 93.5515 34.8368H93.0126V33.66H93.4932C93.6956 33.66 93.8441 33.7073 93.9398 33.803Z" fill="black"/>
<path fill-rule="evenodd" clip-rule="evenodd" d="M98.2366 33.0509C98.5247 33.0509 98.7656 33.1312 98.9559 33.2939C99.1472 33.4545 99.2913 33.6734 99.3881 33.9506C99.4827 34.2277 99.53 34.5423 99.53 34.8932V35.3441H97.5535C97.5579 35.8203 97.6327 36.1767 97.7812 36.4143C97.9297 36.6507 98.1552 36.7684 98.4554 36.7684C98.6105 36.7684 98.7612 36.7464 98.9064 36.7013C99.0549 36.6562 99.2077 36.5825 99.3683 36.4792V37.0775C99.2187 37.1677 99.0615 37.2348 98.8965 37.2788C98.7326 37.3228 98.5566 37.3437 98.3718 37.3437C98.0199 37.3437 97.7317 37.2524 97.5106 37.0709C97.2918 36.8894 97.1301 36.6386 97.0267 36.3175C96.9266 35.9974 96.8771 35.6301 96.8771 35.2165C96.8771 34.7524 96.9266 34.3597 97.0289 34.0385C97.1323 33.7163 97.2852 33.471 97.4865 33.3038C97.6888 33.1345 97.9385 33.0509 98.2366 33.0509ZM97.7614 33.8967C97.878 33.7009 98.0364 33.6041 98.241 33.6041C98.3894 33.6041 98.5093 33.658 98.6061 33.7647C98.7029 33.8725 98.7755 34.0188 98.8206 34.2035C98.8679 34.3872 98.8921 34.5907 98.8921 34.814H97.5601C97.5766 34.3982 97.6437 34.0913 97.7614 33.8967Z" fill="black"/>
<path d="M103.622 33.7094H102.799V37.2685H102.123V33.7094H101.292V33.1187H103.622V33.7094Z" fill="black"/>
<path d="M34.4454 16.1668H31.2558C31.2558 14.7667 31.2712 13.3797 31.247 11.995C31.2371 11.4737 31.2899 10.8489 31.0303 10.4629C30.7322 10.0218 30.1218 9.55219 29.639 9.54229C29.1616 9.53239 28.5193 9.98114 28.2344 10.4156C27.9518 10.8445 27.9595 11.5067 27.9551 12.0676C27.9319 15.8663 27.9329 19.664 27.934 23.4616L27.9342 23.9374C27.9342 24.3311 27.9265 24.7381 28.0178 25.1153C28.2366 26.0084 28.9197 26.5924 29.7446 26.3241C30.2956 26.1437 30.9665 25.3793 31.0248 24.8195C31.1953 23.173 31.0853 21.4979 31.0853 19.726H34.3728C34.3728 21.7937 34.5697 23.8208 34.3233 25.7939C34.0022 28.3566 31.7166 29.892 29.056 29.6776C26.3812 29.4598 24.5279 27.6021 24.5026 24.9591C24.4575 20.343 24.4597 15.7268 24.496 11.1107C24.5158 8.54031 26.28 6.70243 28.8042 6.48026C32.5646 6.1503 34.4278 7.84629 34.4443 11.6199C34.4498 13.1037 34.4454 14.5885 34.4454 16.1668Z" fill="black"/>
</g>
<defs>
<linearGradient id="paint0_linear_93_42411" x1="10.5368" y1="0" x2="10.5368" y2="40" gradientUnits="userSpaceOnUse">
<stop stop-color="#E2D7D3"/>
<stop offset="1" stop-color="#7DAAE3"/>
</linearGradient>
<clipPath id="clip0_93_42411">
<rect width="104" height="40" fill="white"/>
</clipPath>
</defs>
</svg>
